<svg xmlns="http://www.w3.org/2000/svg" version="1.1" viewBox="85.10136157337368 0 404.6656580937973 434" style="max-height: 500px" width="404.6656580937973" height="434">
<path transform="translate(324.3125,27.9375)" fill="#FEFEFD" d="M0 0 C6.29241733 4.83803785 9.3875466 10.91458276 10.6875 18.6875 C11.17369178 26.56380688 7.08796908 33.13888183 2.0625 38.9375 C0.6875 40.0625 0.6875 40.0625 -1.3125 40.0625 C-1.6425 41.0525 -1.9725 42.0425 -2.3125 43.0625 C-2.9725 43.0625 -3.6325 43.0625 -4.3125 43.0625 C-4.6425 44.0525 -4.9725 45.0425 -5.3125 46.0625 C-5.9725 46.0625 -6.6325 46.0625 -7.3125 46.0625 C-7.6425 47.0525 -7.9725 48.0425 -8.3125 49.0625 C-8.9725 49.0625 -9.6325 49.0625 -10.3125 49.0625 C-10.6425 50.0525 -10.9725 51.0425 -11.3125 52.0625 C-11.9725 52.0625 -12.6325 52.0625 -13.3125 52.0625 C-13.54710937 52.59359375 -13.78171875 53.1246875 -14.0234375 53.671875 C-15.69952912 56.7802631 -17.79701926 59.51649703 -19.9375 62.3125 C-20.56785156 63.14394531 -20.56785156 63.14394531 -21.2109375 63.9921875 C-22.24188719 65.35116663 -23.27679911 66.70713835 -24.3125 68.0625 C-23.77995605 68.23265625 -23.24741211 68.4028125 -22.69873047 68.578125 C-2.36781167 75.15822009 13.45953539 84.91753425 29.68505859 98.82861328 C35.33621633 103.66164095 41.19113029 108.21942275 47.05810547 112.78564453 C50.33452298 115.35316979 53.56434866 117.97914875 56.796875 120.6015625 C58.62621723 122.11228439 58.62621723 122.11228439 60.6875 123.0625 C60.6875 123.7225 60.6875 124.3825 60.6875 125.0625 C61.5228125 125.44148438 61.5228125 125.44148438 62.375 125.828125 C68.92521542 129.32452377 75.33467124 134.35684248 78.6875 141.0625 C80.42366776 147.42844845 80.40781726 154.40633009 78.6875 160.75 C75.4493631 166.11316424 70.85364235 169.6184051 65.6875 173.0625 C56.57880619 174.8610319 49.84104907 173.43757511 41.6875 169.0625 C41.6875 168.4025 41.6875 167.7425 41.6875 167.0625 C41.11 166.98 40.5325 166.8975 39.9375 166.8125 C37.05345852 165.85115284 35.75068353 164.25879215 33.6875 162.0625 C32.6975 161.4025 31.7075 160.7425 30.6875 160.0625 C30.6875 159.4025 30.6875 158.7425 30.6875 158.0625 C29.965625 157.815 29.24375 157.5675 28.5 157.3125 C25.41143418 155.93980408 23.17738582 154.33896704 20.6875 152.0625 C20.6875 151.4025 20.6875 150.7425 20.6875 150.0625 C19.66269531 149.74732422 19.66269531 149.74732422 18.6171875 149.42578125 C14.75135928 147.62688252 11.96822359 145.08056769 8.8125 142.25 C5.23246135 139.0673063 1.69731468 136.01284002 -2.2578125 133.30078125 C-3.26585937 132.56214844 -4.27390625 131.82351562 -5.3125 131.0625 C-5.3125 130.4025 -5.3125 129.7425 -5.3125 129.0625 C-6.055 128.80082031 -6.7975 128.53914062 -7.5625 128.26953125 C-10.33769948 127.05143943 -12.05268108 125.74058268 -14.3125 123.75 C-24.22486789 116.07072633 -33.09670131 114.59628232 -45.375 114.4375 C-46.46288818 114.41437744 -47.55077637 114.39125488 -48.67163086 114.36743164 C-55.89156625 114.43655579 -61.33064357 115.88501 -67.84936523 118.99072266 C-70.3125 120.0625 -70.3125 120.0625 -73.3125 120.0625 C-73.3125 120.7225 -73.3125 121.3825 -73.3125 122.0625 C-76.3125 124.0625 -76.3125 124.0625 -79.3125 126.0625 C-80.33573436 127.37808703 -81.34376968 128.70627755 -82.3125 130.0625 C-82.9725 130.0625 -83.6325 130.0625 -84.3125 130.0625 C-84.3125 130.7225 -84.3125 131.3825 -84.3125 132.0625 C-84.9725 132.0625 -85.6325 132.0625 -86.3125 132.0625 C-86.6425 133.0525 -86.9725 134.0425 -87.3125 135.0625 C-88.43276953 136.2167171 -89.56029835 137.3647419 -90.72265625 138.4765625 C-92.67928854 140.42838734 -94.48828026 142.48654484 -96.3125 144.5625 C-104.47207447 153.78235816 -104.47207447 153.78235816 -108.3125 155.0625 C-108.6425 156.0525 -108.9725 157.0425 -109.3125 158.0625 C-109.9725 158.0625 -110.6325 158.0625 -111.3125 158.0625 C-111.621875 158.68125 -111.93125 159.3 -112.25 159.9375 C-112.9375 161.3125 -113.625 162.6875 -114.3125 164.0625 C-114.9725 164.0625 -115.6325 164.0625 -116.3125 164.0625 C-116.6425 165.0525 -116.9725 166.0425 -117.3125 167.0625 C-117.9725 167.0625 -118.6325 167.0625 -119.3125 167.0625 C-119.67794922 167.92101562 -119.67794922 167.92101562 -120.05078125 168.796875 C-121.53767298 171.46683538 -123.29333908 173.20079007 -125.5 175.3125 C-129.02966887 178.76323059 -132.35843458 182.28615254 -135.5625 186.0390625 C-136.78566579 187.45334795 -138.0384417 188.84232019 -139.3125 190.2109375 C-148.52119781 200.15214536 -153.93291404 209.83940466 -153.56640625 223.64453125 C-152.42723507 234.49294604 -148.94166054 243.67997764 -141.484375 251.6171875 C-140.3125 253.0625 -140.3125 253.0625 -140.3125 255.0625 C-139.3225 255.3925 -138.3325 255.7225 -137.3125 256.0625 C-137.3125 256.7225 -137.3125 257.3825 -137.3125 258.0625 C-136.3225 258.3925 -135.3325 258.7225 -134.3125 259.0625 C-134.3125 259.7225 -134.3125 260.3825 -134.3125 261.0625 C-133.3225 261.3925 -132.3325 261.7225 -131.3125 262.0625 C-131.3125 262.7225 -131.3125 263.3825 -131.3125 264.0625 C-130.3225 264.3925 -129.3325 264.7225 -128.3125 265.0625 C-128.3125 265.7225 -128.3125 266.3825 -128.3125 267.0625 C-127.77206055 267.27624268 -127.23162109 267.48998535 -126.67480469 267.71020508 C-123.46092979 269.54997906 -121.07897363 272.06989832 -118.515625 274.69921875 C-117.96316101 275.25688431 -117.41069702 275.81454987 -116.8414917 276.38911438 C-115.07699486 278.17137805 -113.31931205 279.96016335 -111.5625 281.75 C-109.25864407 284.09065363 -106.95155374 286.42804767 -104.640625 288.76171875 C-103.80073532 289.6101963 -103.80073532 289.6101963 -102.94387817 290.47581482 C-99.53367752 293.89916209 -96.02226022 297.12084249 -92.33789062 300.2487793 C-89.73259847 302.58179707 -87.29283716 305.06479893 -84.8515625 307.56640625 C-84.37078247 308.05743332 -83.89000244 308.54846039 -83.39465332 309.05436707 C-81.40804161 311.08603361 -79.42360566 313.11945332 -77.45410156 315.16772461 C-67.16846029 325.84256149 -56.8213075 333.88463432 -41.46630859 334.41430664 C-28.19364151 334.56150526 -15.91711429 331.25184525 -6.0234375 321.8984375 C-5.12882813 320.96257812 -4.23421875 320.02671875 -3.3125 319.0625 C-1.89860093 317.64307113 -0.48162562 316.22670344 0.9375 314.8125 C1.7109375 314.0390625 2.484375 313.265625 3.28125 312.46875 C5.66666667 310.08333333 8.05208333 307.69791667 10.4375 305.3125 C11.18153076 304.56830811 11.92556152 303.82411621 12.69213867 303.05737305 C14.2479937 301.50189875 15.80534387 299.9479199 17.36328125 298.39453125 C19.16285599 296.58890752 20.94963226 294.77318013 22.73046875 292.94921875 C23.77860033 291.88276777 24.82677786 290.81636196 25.875 289.75 C26.40802734 289.20021484 26.94105469 288.65042969 27.49023438 288.08398438 C28.85174956 286.70534322 30.26590502 285.37910273 31.6875 284.0625 C32.3475 284.0625 33.0075 284.0625 33.6875 284.0625 C33.6875 283.4025 33.6875 282.7425 33.6875 282.0625 C39.19895605 277.16342795 44.69896672 276.68264159 51.8125 276.8046875 C55.37225234 277.12390442 57.71056633 278.10208027 60.6875 280.0625 C61.533125 280.454375 62.37875 280.84625 63.25 281.25 C67.52254942 284.42702393 70.02045406 289.06136218 71.6875 294.0625 C72.43601531 302.03706698 71.31832039 309.07091044 66.875 315.8125 C64.30641529 318.45447284 61.54120801 320.73294244 58.6875 323.0625 C55.86819916 325.7408358 53.29361167 328.51347669 50.8125 331.5 C48.22725517 334.56374773 45.42596714 337.10669653 42.34765625 339.6640625 C39.00623332 342.47871994 36.11029973 345.5368571 33.375 348.9375 C19.64915353 365.59549324 -3.62764509 378.57594295 -25.09667969 380.88964844 C-40.31722004 382.07697133 -56.10252971 382.15248727 -70.3125 376.0625 C-71.28445312 375.67835938 -72.25640625 375.29421875 -73.2578125 374.8984375 C-78.69319318 372.72161428 -83.56796362 370.54182668 -88.3125 367.0625 C-89.70765684 366.16561346 -91.10356651 365.26989752 -92.5 364.375 C-98.05040511 360.6715727 -103.43466374 356.62122548 -108.3125 352.0625 C-108.3125 351.4025 -108.3125 350.7425 -108.3125 350.0625 C-109.3025 349.7325 -110.2925 349.4025 -111.3125 349.0625 C-111.3125 348.4025 -111.3125 347.7425 -111.3125 347.0625 C-112.3025 346.7325 -113.2925 346.4025 -114.3125 346.0625 C-114.3125 345.4025 -114.3125 344.7425 -114.3125 344.0625 C-115.3025 343.7325 -116.2925 343.4025 -117.3125 343.0625 C-117.3125 342.4025 -117.3125 341.7425 -117.3125 341.0625 C-117.93125 340.815 -118.55 340.5675 -119.1875 340.3125 C-121.71608627 338.82509631 -122.03089004 337.62571991 -123.3125 335.0625 C-123.90530762 334.77576416 -124.49811523 334.48902832 -125.10888672 334.19360352 C-127.78674406 332.81907293 -129.46790829 331.11638713 -131.5703125 328.96484375 C-132.75560547 327.76311523 -132.75560547 327.76311523 -133.96484375 326.53710938 C-134.78082031 325.69986328 -135.59679687 324.86261719 -136.4375 324 C-138.06288706 322.34027378 -139.69038627 320.68261253 -141.3203125 319.02734375 C-142.03848145 318.2912085 -142.75665039 317.55507324 -143.49658203 316.79663086 C-145.20771545 314.99226993 -145.20771545 314.99226993 -147.3125 314.0625 C-147.3125 313.4025 -147.3125 312.7425 -147.3125 312.0625 C-147.9725 312.0625 -148.6325 312.0625 -149.3125 312.0625 C-151.4375 310.1875 -151.4375 310.1875 -153.3125 308.0625 C-153.3125 307.4025 -153.3125 306.7425 -153.3125 306.0625 C-154.3025 305.7325 -155.2925 305.4025 -156.3125 305.0625 C-156.3125 304.4025 -156.3125 303.7425 -156.3125 303.0625 C-156.9725 303.0625 -157.6325 303.0625 -158.3125 303.0625 C-159.66169532 301.40864767 -160.99383728 299.740798 -162.3125 298.0625 C-163.3025 297.4025 -164.2925 296.7425 -165.3125 296.0625 C-165.3125 295.4025 -165.3125 294.7425 -165.3125 294.0625 C-165.9725 294.0625 -166.6325 294.0625 -167.3125 294.0625 C-169.4375 292.1875 -169.4375 292.1875 -171.3125 290.0625 C-171.3125 289.4025 -171.3125 288.7425 -171.3125 288.0625 C-172.3025 287.7325 -173.2925 287.4025 -174.3125 287.0625 C-174.3125 286.4025 -174.3125 285.7425 -174.3125 285.0625 C-174.9725 285.0625 -175.6325 285.0625 -176.3125 285.0625 C-177.9375 283.75 -177.9375 283.75 -179.3125 282.0625 C-179.3125 281.0725 -179.3125 280.0825 -179.3125 279.0625 C-180.3025 278.7325 -181.2925 278.4025 -182.3125 278.0625 C-187.803404 271.98779299 -190.68366903 263.98826257 -193.796875 256.5390625 C-195.20202418 253.03758108 -195.20202418 253.03758108 -197.3125 250.0625 C-201.56935399 234.72560499 -202.47698372 218.65888404 -199.3125 203.0625 C-199.1165625 202.03640625 -198.920625 201.0103125 -198.71875 199.953125 C-195.35079826 184.47658488 -186.25240247 172.03251742 -176.3125 160.0625 C-175.65378906 159.26714844 -174.99507812 158.47179687 -174.31640625 157.65234375 C-170.77411417 153.47671047 -170.77411417 153.47671047 -169.3125 152.0625 C-168.6525 152.0625 -167.9925 152.0625 -167.3125 152.0625 C-167.065 151.505625 -166.8175 150.94875 -166.5625 150.375 C-165.08325182 147.63839087 -163.37782561 145.38599131 -161.3125 143.0625 C-160.6525 143.0625 -159.9925 143.0625 -159.3125 143.0625 C-158.9825 142.0725 -158.6525 141.0825 -158.3125 140.0625 C-157.6525 140.0625 -156.9925 140.0625 -156.3125 140.0625 C-155.9825 139.0725 -155.6525 138.0825 -155.3125 137.0625 C-154.6525 137.0625 -153.9925 137.0625 -153.3125 137.0625 C-152.9825 136.0725 -152.6525 135.0825 -152.3125 134.0625 C-151.6525 134.0625 -150.9925 134.0625 -150.3125 134.0625 C-150.065 133.505625 -149.8175 132.94875 -149.5625 132.375 C-146.95721838 127.555229 -143.20295058 123.86247499 -139.3125 120.0625 C-137.54548596 118.29954806 -135.78259336 116.53252821 -134.01953125 114.765625 C-132.52233553 113.27185536 -131.0121914 111.79108715 -129.5 110.3125 C-127.18372524 108.06681551 -127.18372524 108.06681551 -125.3125 105.0625 C-124.6525 105.0625 -123.9925 105.0625 -123.3125 105.0625 C-123.085625 104.505625 -122.85875 103.94875 -122.625 103.375 C-120.93699964 100.40090412 -118.84573483 98.34241135 -116.3125 96.0625 C-115.6525 96.0625 -114.9925 96.0625 -114.3125 96.0625 C-114.0546875 95.49015625 -113.796875 94.9178125 -113.53125 94.328125 C-112.19884058 91.85121005 -110.66193882 89.9283834 -108.8125 87.8125 C-108.2040625 87.10609375 -107.595625 86.3996875 -106.96875 85.671875 C-105.3125 84.0625 -105.3125 84.0625 -103.3125 84.0625 C-102.8175 82.5775 -102.8175 82.5775 -102.3125 81.0625 C-101.6525 81.0625 -100.9925 81.0625 -100.3125 81.0625 C-100.05082031 80.48371094 -99.78914063 79.90492187 -99.51953125 79.30859375 C-96.37945716 73.46541382 -91.02153517 68.65380929 -86.3125 64.0625 C-85.05955906 62.8363313 -83.8097087 61.60699884 -82.5625 60.375 C-81.96953125 59.79363281 -81.3765625 59.21226563 -80.765625 58.61328125 C-79.21608196 57.10736026 -79.21608196 57.10736026 -78.3125 55.0625 C-77.6525 55.0625 -76.9925 55.0625 -76.3125 55.0625 C-76.05082031 54.485 -75.78914063 53.9075 -75.51953125 53.3125 C-72.38897988 47.4769091 -67.41295182 43.14286145 -62.3125 39.0625 C-61.24095794 37.88327847 -60.19120931 36.684112 -59.15625 35.47265625 C-55.3191562 31.04039279 -51.33813301 26.7608472 -47.3125 22.5 C-46.63960937 21.78392578 -45.96671875 21.06785156 -45.2734375 20.33007812 C-41.50888894 16.33660431 -37.69353573 12.41540493 -33.7578125 8.59008789 C-32.09391849 6.91761766 -32.09391849 6.91761766 -30.3125 4.0625 C-29.6525 4.0625 -28.9925 4.0625 -28.3125 4.0625 C-28.3125 3.4025 -28.3125 2.7425 -28.3125 2.0625 C-19.42681831 -4.87266619 -9.58873095 -6.05003263 0 0 Z"/>
<path transform="translate(424.26025390625,228.39306640625)" fill="#B3B3B3" d="M0 0 C0.73394171 0.03430807 1.46788342 0.06861614 2.22406578 0.10396385 C9.73359063 0.55994947 14.97863265 2.41203484 20.11474609 7.91943359 C25.29167884 14.721348 26.82062638 21.17849629 25.73974609 29.60693359 C24.03066968 35.22660859 20.53329689 40.18585208 15.73974609 43.60693359 C10.70062441 46.09709912 7.05713025 46.98365469 1.34608459 46.99461365 C0.63521004 46.99999919 -0.07566452 47.00538472 -0.80808073 47.01093346 C-3.17244535 47.02515615 -5.53624558 47.01812373 -7.90063477 47.01098633 C-9.6029556 47.01669288 -11.30527261 47.02365825 -13.00758362 47.03178406 C-17.6191848 47.04969888 -22.23059552 47.04855026 -26.84222102 47.04284167 C-30.69657619 47.03974746 -34.55089491 47.04584486 -38.40524489 47.05188042 C-47.5000933 47.06591848 -56.59484777 47.06437028 -65.68969727 47.05297852 C-75.06297445 47.04149723 -84.43596551 47.05557478 -93.809205 47.08237499 C-101.86632516 47.10454701 -109.9233556 47.111166 -117.9805041 47.10529858 C-122.78849902 47.10193149 -127.59631053 47.10432763 -132.40427971 47.12154961 C-136.92619806 47.13704067 -141.44769319 47.1330393 -145.96959496 47.11424446 C-147.62556122 47.11056459 -149.281559 47.11364949 -150.93749619 47.12413025 C-161.12792151 47.18368518 -168.57221477 46.87500827 -176.57275391 39.79443359 C-181.53064185 34.36372255 -182.89248595 28.66410157 -182.67431641 21.45458984 C-181.77581399 15.27526661 -178.95102406 9.76300455 -174.26025391 5.60693359 C-164.99568325 -0.56944684 -153.89299637 0.44621706 -143.13769531 0.38574219 C-141.72878717 0.37450372 -140.31988213 0.36287055 -138.91098022 0.35087585 C-135.10459684 0.31973268 -131.29819616 0.29450027 -127.49176073 0.270679 C-124.29695299 0.25012986 -121.10216964 0.22663047 -117.90738237 0.20314181 C-110.35397005 0.1476459 -102.80053618 0.09692365 -95.24707031 0.04931641 C-87.50315528 0.00043683 -79.75932102 -0.05590731 -72.01548636 -0.11610472 C-65.33058842 -0.16783033 -58.6456688 -0.21506776 -51.96071374 -0.25879228 C-47.98466696 -0.28482487 -44.00864767 -0.31237798 -40.03264236 -0.3441658 C-11.61547775 -0.5677035 -11.61547775 -0.5677035 0 0 Z"/>
<path transform="translate(382.4375,306.3125)" fill="#FDA117" d="M0 0 C0.845625 0.556875 1.69125 1.11375 2.5625 1.6875 C3.408125 2.079375 4.25375 2.47125 5.125 2.875 C9.39754942 6.05202393 11.89545406 10.68636218 13.5625 15.6875 C14.31101531 23.66206698 13.19332039 30.69591044 8.75 37.4375 C6.18141529 40.07947284 3.41620801 42.35794244 0.5625 44.6875 C-2.25680084 47.3658358 -4.83138833 50.13847669 -7.3125 53.125 C-9.89774483 56.18874773 -12.69903286 58.73169653 -15.77734375 61.2890625 C-19.11876668 64.10371994 -22.01470027 67.1618571 -24.75 70.5625 C-38.47584647 87.22049324 -61.75264509 100.20094295 -83.22167969 102.51464844 C-98.44222004 103.70197133 -114.22752971 103.77748727 -128.4375 97.6875 C-129.40945312 97.30335938 -130.38140625 96.91921875 -131.3828125 96.5234375 C-136.81819318 94.34661428 -141.69296362 92.16682668 -146.4375 88.6875 C-148.78372265 87.17147921 -151.13281034 85.66006463 -153.484375 84.15234375 C-155.4375 82.6875 -155.4375 82.6875 -157.4375 79.6875 C-156.7465625 79.84863281 -156.055625 80.00976562 -155.34375 80.17578125 C-152.16100786 80.73618343 -149.16845298 80.85612761 -145.9375 80.875 C-144.8340625 80.88917969 -143.730625 80.90335937 -142.59375 80.91796875 C-136.47403641 80.47110848 -133.49656901 78.16288378 -129.4375 73.6875 C-125.39919128 68.97613983 -124.2792343 65.9344205 -124.1875 59.75 C-124.14882813 58.18958984 -124.14882813 58.18958984 -124.109375 56.59765625 C-124.47890339 53.32029135 -125.38999869 52.1822187 -127.4375 49.6875 C-127.4375 48.6975 -127.4375 47.7075 -127.4375 46.6875 C-122.55171397 48.54661344 -118.00453168 50.93250516 -113.375 53.34765625 C-104.06385359 57.59462862 -90.73609867 56.87160773 -81.1015625 53.80078125 C-73.49605499 50.62252664 -67.12806771 46.640457 -61.4375 40.6875 C-60.02360093 39.26807113 -58.60662562 37.85170344 -57.1875 36.4375 C-56.4140625 35.6640625 -55.640625 34.890625 -54.84375 34.09375 C-52.45833333 31.70833333 -50.07291667 29.32291667 -47.6875 26.9375 C-46.94346924 26.19330811 -46.19943848 25.44911621 -45.43286133 24.68237305 C-43.8770063 23.12689875 -42.31965613 21.5729199 -40.76171875 20.01953125 C-38.96214401 18.21390752 -37.17536774 16.39818013 -35.39453125 14.57421875 C-34.34639967 13.50776777 -33.29822214 12.44136196 -32.25 11.375 C-31.71697266 10.82521484 -31.18394531 10.27542969 -30.63476562 9.70898438 C-29.27325044 8.33034322 -27.85909498 7.00410273 -26.4375 5.6875 C-25.7775 5.6875 -25.1175 5.6875 -24.4375 5.6875 C-24.4375 5.0275 -24.4375 4.3675 -24.4375 3.6875 C-17.69921914 -2.30208299 -8.27225313 -3.15849665 0 0 Z"/>
<path transform="translate(304.38671875,98.26171875)" fill="#FDA117" d="M0 0 C19.5937599 4.00348175 34.72033071 15.73790024 49.61083984 28.50439453 C55.26199758 33.3374222 61.11691154 37.895204 66.98388672 42.46142578 C70.26030423 45.02895104 73.49012991 47.65493 76.72265625 50.27734375 C78.55199848 51.78806564 78.55199848 51.78806564 80.61328125 52.73828125 C80.61328125 53.39828125 80.61328125 54.05828125 80.61328125 54.73828125 C81.17015625 54.9909375 81.72703125 55.24359375 82.30078125 55.50390625 C88.85099667 59.00030502 95.26045249 64.03262373 98.61328125 70.73828125 C100.34944901 77.1042297 100.33359851 84.08211134 98.61328125 90.42578125 C95.37514435 95.78894549 90.7794236 99.29418635 85.61328125 102.73828125 C76.50458744 104.53681315 69.76683032 103.11335636 61.61328125 98.73828125 C61.61328125 98.07828125 61.61328125 97.41828125 61.61328125 96.73828125 C61.03578125 96.65578125 60.45828125 96.57328125 59.86328125 96.48828125 C56.97923977 95.52693409 55.67646478 93.9345734 53.61328125 91.73828125 C52.12828125 90.74828125 52.12828125 90.74828125 50.61328125 89.73828125 C50.61328125 89.07828125 50.61328125 88.41828125 50.61328125 87.73828125 C49.53046875 87.36703125 49.53046875 87.36703125 48.42578125 86.98828125 C45.33721543 85.61558533 43.10316707 84.01474829 40.61328125 81.73828125 C40.61328125 81.07828125 40.61328125 80.41828125 40.61328125 79.73828125 C39.58847656 79.42310547 39.58847656 79.42310547 38.54296875 79.1015625 C34.67714053 77.30266377 31.89400484 74.75634894 28.73828125 71.92578125 C25.1582426 68.74308755 21.62309593 65.68862127 17.66796875 62.9765625 C16.65992188 62.23792969 15.651875 61.49929687 14.61328125 60.73828125 C14.61328125 60.07828125 14.61328125 59.41828125 14.61328125 58.73828125 C13.87078125 58.47660156 13.12828125 58.21492188 12.36328125 57.9453125 C9.58808177 56.72722068 7.87310017 55.41636393 5.61328125 53.42578125 C-4.29908664 45.74650758 -13.17092006 44.27206357 -25.44921875 44.11328125 C-27.08105103 44.07859741 -27.08105103 44.07859741 -28.74584961 44.04321289 C-35.965785 44.11233704 -41.40486232 45.56079125 -47.92358398 48.66650391 C-50.38671875 49.73828125 -50.38671875 49.73828125 -53.38671875 49.73828125 C-53.38671875 50.39828125 -53.38671875 51.05828125 -53.38671875 51.73828125 C-54.70671875 51.73828125 -56.02671875 51.73828125 -57.38671875 51.73828125 C-55.77638516 47.6392503 -52.80839957 44.9764915 -49.69921875 41.98828125 C-44.39449619 36.79022202 -39.42841231 31.42924582 -34.703125 25.6953125 C-34.16558594 25.04949219 -33.62804687 24.40367188 -33.07421875 23.73828125 C-32.60371094 23.16078125 -32.13320313 22.58328125 -31.6484375 21.98828125 C-30.38671875 20.73828125 -30.38671875 20.73828125 -28.38671875 20.73828125 C-28.14308594 20.1659375 -27.89945312 19.59359375 -27.6484375 19.00390625 C-25.65398322 15.42253324 -22.67915226 12.94543311 -19.73046875 10.13671875 C-17.5541632 7.90963274 -15.95620497 5.66808264 -14.19921875 3.11328125 C-10.14043389 -1.60317708 -5.79927395 -0.80222269 0 0 Z"/>
<path transform="translate(424.290771484375,228.371826171875)" fill="#D8D8D8" d="M0 0 C1.10383703 0.04654834 1.10383703 0.04654834 2.22997379 0.09403706 C6.08693567 0.32014125 9.21498385 0.96475982 12.70922852 2.62817383 C12.70922852 2.95817383 12.70922852 3.28817383 12.70922852 3.62817383 C-73.42077148 3.13317383 -73.42077148 3.13317383 -161.29077148 2.62817383 C-157.28329272 0.62443444 -155.7184433 0.37113968 -151.3948822 0.3429718 C-150.18837509 0.33036316 -148.98186798 0.31775452 -147.73880005 0.30476379 C-146.40448053 0.30080379 -145.07016042 0.29704153 -143.73583984 0.29345703 C-142.32766563 0.28251785 -140.91949781 0.27072671 -139.51133728 0.25814819 C-135.68399513 0.22653448 -131.85668038 0.20728881 -128.029248 0.19052529 C-124.00753833 0.17112589 -119.98590356 0.14140232 -115.96424866 0.11308289 C-109.19445518 0.06698024 -102.42465208 0.02861771 -95.65478516 -0.00488281 C-87.8740286 -0.04345079 -80.09339991 -0.09270921 -72.31274694 -0.14821309 C-64.79394706 -0.20170518 -57.27512073 -0.24868487 -49.75625801 -0.29239845 C-46.57615246 -0.31092041 -43.3960689 -0.3313948 -40.21598625 -0.35349083 C-11.71764572 -0.54652588 -11.71764572 -0.54652588 0 0 Z"/>
<path transform="translate(273,120)" fill="#F5A42F" d="M0 0 C1 2 1 2 0.375 5 C-1 8 -1 8 -3.625 9.375 C-4.40875 9.58125 -5.1925 9.7875 -6 10 C-5.67 10.99 -5.34 11.98 -5 13 C-5.59793673 15.35188447 -6.25881795 17.68925595 -7 20 C-6.39115967 19.98952637 -5.78231934 19.97905273 -5.1550293 19.96826172 C19.97519214 19.59265156 19.97519214 19.59265156 26 22 C26.66 22.99 27.32 23.98 28 25 C23.30705805 24.08748351 23.30705805 24.08748351 21.18164062 23.48193359 C16.3901486 22.42347284 11.38601723 22.68511878 6.5 22.625 C5.37851562 22.58761719 4.25703125 22.55023438 3.1015625 22.51171875 C-4.35479609 22.43422773 -9.8281532 23.68092424 -16.55664062 26.91943359 C-19 28 -19 28 -22 28 C-22 28.66 -22 29.32 -22 30 C-23.32 30 -24.64 30 -26 30 C-24.38966802 25.90097314 -21.42169145 23.23820201 -18.3125 20.25 C-13.64497322 15.67645027 -9.19311945 11.01836104 -5 6 C-4.4946875 5.39929688 -3.989375 4.79859375 -3.46875 4.1796875 C-2.30650749 2.7914534 -1.15218739 1.39659078 0 0 Z"/>
<path transform="translate(211,121)" fill="#F6F3EF" d="M0 0 C0.495 1.485 0.495 1.485 1 3 C-0.98 3.99 -0.98 3.99 -3 5 C-3 5.66 -3 6.32 -3 7 C-3.97403883 8.02530403 -4.9826127 9.01769502 -6 10 C-6.86017751 11.05763964 -7.71393672 12.12051954 -8.5625 13.1875 C-9.7690625 14.5796875 -9.7690625 14.5796875 -11 16 C-11.66 16 -12.32 16 -13 16 C-13.66 17.32 -14.32 18.64 -15 20 C-15.66 20 -16.32 20 -17 20 C-17.99 22.475 -17.99 22.475 -19 25 C-19.66 25 -20.32 25 -21 25 C-21 25.66 -21 26.32 -21 27 C-21.66 27 -22.32 27 -23 27 C-23 27.66 -23 28.32 -23 29 C-23.66 29 -24.32 29 -25 29 C-25.22945312 29.54269531 -25.45890625 30.08539063 -25.6953125 30.64453125 C-27.39299642 33.70951149 -29.53255584 36.08439811 -31.875 38.6875 C-33.17050781 40.14736328 -33.17050781 40.14736328 -34.4921875 41.63671875 C-36.83637247 43.84580272 -37.86586105 44.68658611 -41 45 C-40.34 43.68 -39.68 42.36 -39 41 C-38.34 41 -37.68 41 -37 41 C-36.7525 40.443125 -36.505 39.88625 -36.25 39.3125 C-33.64471838 34.492729 -29.89045058 30.79997499 -26 27 C-24.23298596 25.23704806 -22.47009336 23.47002821 -20.70703125 21.703125 C-19.20983553 20.20935536 -17.6996914 18.72858715 -16.1875 17.25 C-13.87122524 15.00431551 -13.87122524 15.00431551 -12 12 C-11.34 12 -10.68 12 -10 12 C-9.773125 11.443125 -9.54625 10.88625 -9.3125 10.3125 C-7.62449964 7.33840412 -5.53323483 5.27991135 -3 3 C-2.34 3 -1.68 3 -1 3 C-0.67 2.01 -0.34 1.02 0 0 Z"/>
<path transform="translate(351,317)" fill="#FC9F19" d="M0 0 C0 0.99 0 1.98 0 3 C0.020625 3.78375 0.04125 4.5675 0.0625 5.375 C-0.03305035 9.38811464 -0.27953058 12.01269005 -2.6875 15.3125 C-5.66137247 17.48262315 -7.37687387 17 -11 17 C-13.0180755 18.30581356 -15.02053408 19.63636792 -17 21 C-17.99 20.67 -18.98 20.34 -20 20 C-13.33333333 13.33333333 -6.66666667 6.66666667 0 0 Z"/>
<path transform="translate(309,403)" fill="#F2B75B" d="M0 0 C2.97 0 5.94 0 9 0 C1.60635398 7.39364602 -14.08330851 6.17977781 -23.8125 6.1875 C-24.79081787 6.18830566 -25.76913574 6.18911133 -26.77709961 6.18994141 C-32.27021047 6.1478486 -37.56547781 5.8039234 -43 5 C-43 4.67 -43 4.34 -43 4 C-41.55379272 3.96241577 -41.55379272 3.96241577 -40.07836914 3.92407227 C-36.51312158 3.83014694 -32.94807567 3.72989061 -29.38305664 3.62768555 C-27.83785711 3.58428015 -26.29260786 3.54260929 -24.74731445 3.50268555 C-22.53060904 3.44511801 -20.3141552 3.38138576 -18.09765625 3.31640625 C-17.4028566 3.29969376 -16.70805695 3.28298126 -15.99220276 3.26576233 C-12.71237971 3.43497144 -12.71237971 3.43497144 -10 2 C-8.31391034 1.92794489 -6.62499341 1.91613932 -4.9375 1.9375 C-4.01839844 1.94652344 -3.09929687 1.95554687 -2.15234375 1.96484375 C-1.44207031 1.97644531 -0.73179687 1.98804688 0 2 C0 1.34 0 0.68 0 0 Z"/>
<path transform="translate(308,358)" fill="#F2B75C" d="M0 0 C0 0.99 0 1.98 0 3 C-12.57404385 6.83463748 -25.30057988 10.17010948 -38.2421875 5.984375 C-40 5 -40 5 -41 2 C-40.46375 2.144375 -39.9275 2.28875 -39.375 2.4375 C-24.50382252 5.95962098 -13.80282164 0 0 0 Z"/>
<path transform="translate(384,308)" fill="#F3B557" d="M0 0 C5.92613754 2.20507443 8.24977783 5.56529801 11 11 C13.22024286 17.66072858 12.26679704 24.4829585 10 31 C9.67 31 9.34 31 9 31 C9 24.4 9 17.8 9 11 C8.34 11 7.68 11 7 11 C5.375 9.75 5.375 9.75 4 8 C4 6.68 4 5.36 4 4 C3.01 4 2.02 4 1 4 C0.67 2.68 0.34 1.36 0 0 Z"/>
<path transform="translate(357,130)" fill="#F5B24B" d="M0 0 C4.85926489 3.1259757 9.37216177 6.57039448 13.875 10.1875 C14.56335938 10.73341797 15.25171875 11.27933594 15.9609375 11.84179688 C16.610625 12.36193359 17.2603125 12.88207031 17.9296875 13.41796875 C18.51991699 13.89000732 19.11014648 14.3620459 19.71826172 14.84838867 C20.35272217 15.41843628 20.35272217 15.41843628 21 16 C21 16.33 21 16.66 21 17 C19.02 17 17.04 17 15 17 C14.71125 16.360625 14.4225 15.72125 14.125 15.0625 C13.17176549 12.84793921 13.17176549 12.84793921 11 12 C11 11.34 11 10.68 11 10 C9.35 10 7.7 10 6 10 C6 9.34 6 8.68 6 8 C5.01 8 4.02 8 3 8 C0 2.25 0 2.25 0 0 Z"/>
<path transform="translate(171,235)" fill="#F9F6EB" d="M0 0 C0.33 0 0.66 0 1 0 C0.9278125 0.61746094 0.855625 1.23492187 0.78125 1.87109375 C-0.33399845 12.04773587 0.08884056 20.91522117 2 31 C1.34 31 0.68 31 0 31 C-3.39952392 22.4000139 -5.00717203 12.05428624 -2.04296875 3.11328125 C-1 1 -1 1 0 0 Z"/>
<path transform="translate(200,198)" fill="#F9F5EE" d="M0 0 C0.66 0.66 1.32 1.32 2 2 C1.25556641 2.72703125 1.25556641 2.72703125 0.49609375 3.46875 C-4.23370741 8.13572647 -8.6757617 12.95828719 -13 18 C-14.31104343 19.50127326 -15.62350626 21.00130834 -16.9375 22.5 C-17.52402344 23.1703125 -18.11054688 23.840625 -18.71484375 24.53125 C-19.13894531 25.0159375 -19.56304687 25.500625 -20 26 C-20.99 25.67 -21.98 25.34 -23 25 C-22.56429687 24.5875 -22.12859375 24.175 -21.6796875 23.75 C-17.82134773 20.00857962 -14.47695501 16.1754986 -11.359375 11.796875 C-10.01205588 10.01593593 -8.68453108 8.46717223 -7 7 C-6.34 7 -5.68 7 -5 7 C-5 6.34 -5 5.68 -5 5 C-3.37446717 3.29319053 -1.70884005 1.62339805 0 0 Z"/>
<path transform="translate(224,172)" fill="#F9F6F0" d="M0 0 C0.99 0.33 1.98 0.66 3 1 C1.5484451 2.67257355 0.08855591 4.33791758 -1.375 6 C-2.18710938 6.928125 -2.99921875 7.85625 -3.8359375 8.8125 C-4.55007812 9.534375 -5.26421875 10.25625 -6 11 C-6.66 11 -7.32 11 -8 11 C-8.33 11.99 -8.66 12.98 -9 14 C-9.66 14 -10.32 14 -11 14 C-11.309375 14.61875 -11.61875 15.2375 -11.9375 15.875 C-12.625 17.25 -13.3125 18.625 -14 20 C-14.66 20 -15.32 20 -16 20 C-16.33 20.99 -16.66 21.98 -17 23 C-17.99 23.33 -18.98 23.66 -20 24 C-20 23.01 -20 22.02 -20 21 C-19.34 21 -18.68 21 -18 21 C-17.773125 20.443125 -17.54625 19.88625 -17.3125 19.3125 C-15.63832737 16.36276727 -13.42167689 14.3626116 -11 12 C-10.46375 11.236875 -9.9275 10.47375 -9.375 9.6875 C-8.92125 9.130625 -8.4675 8.57375 -8 8 C-7.01 8 -6.02 8 -5 8 C-4.731875 7.4225 -4.46375 6.845 -4.1875 6.25 C-2.98280141 3.9674132 -1.59201885 2.0262058 0 0 Z"/>
<path transform="translate(330,338)" fill="#F4B85A" d="M0 0 C0 3.62453269 -0.92469613 5.07920195 -3 8 C-3.99 8.33 -4.98 8.66 -6 9 C-6 9.99 -6 10.98 -6 12 C-6.721875 12.226875 -7.44375 12.45375 -8.1875 12.6875 C-11.1776242 13.87446645 -11.1776242 13.87446645 -13.4375 16.5625 C-16.36839505 19.35042456 -18.03574701 19.72342421 -22 20 C-17 16 -17 16 -14.5 14.0625 C-11.8172239 11.84920972 -9.43028539 9.48814933 -7 7 C-5.73049252 5.72784219 -4.45961248 4.4570529 -3.1875 3.1875 C-2.58292969 2.58292969 -1.97835938 1.97835938 -1.35546875 1.35546875 C-0.68451172 0.68451172 -0.68451172 0.68451172 0 0 Z"/>
<path transform="translate(373,304.75)" fill="#F0B75D" d="M0 0 C1.5159375 -0.00773437 1.5159375 -0.00773437 3.0625 -0.015625 C6.0703976 0.25636574 8.27306793 0.98678882 11 2.25 C11 2.58 11 2.91 11 3.25 C9.33710938 3.18039062 9.33710938 3.18039062 7.640625 3.109375 C6.17711032 3.07184898 4.71356644 3.03544971 3.25 3 C2.15558594 2.94972656 2.15558594 2.94972656 1.0390625 2.8984375 C-2.60035271 2.83226631 -4.50413571 2.8211444 -7.3125 5.25 C-7.869375 5.91 -8.42625 6.57 -9 7.25 C-12.25 7.5 -12.25 7.5 -15 7.25 C-15 6.59 -15 5.93 -15 5.25 C-10.46484752 1.21875335 -5.99018015 -0.03056214 0 0 Z"/>
<path transform="translate(378,147)" fill="#F2B250" d="M0 0 C3.465 1.98 3.465 1.98 7 4 C7 4.66 7 5.32 7 6 C7.55429687 6.25007812 8.10859375 6.50015625 8.6796875 6.7578125 C11.40726319 8.21802979 13.69879197 9.95576082 16.125 11.875 C16.99382812 12.55304688 17.86265625 13.23109375 18.7578125 13.9296875 C20.88958043 15.89804465 21.93664187 17.33563076 23 20 C21.68 20.33 20.36 20.66 19 21 C19 19.35 19 17.7 19 16 C18.01 16 17.02 16 16 16 C16 15.34 16 14.68 16 14 C15.34 14 14.68 14 14 14 C14 13.34 14 12.68 14 12 C12.68 12 11.36 12 10 12 C9.67 11.01 9.34 10.02 9 9 C8.01 8.67 7.02 8.34 6 8 C4.64631404 6.68733482 3.31200404 5.35432675 2 4 C1.34 3.67 0.68 3.34 0 3 C0 2.01 0 1.02 0 0 Z"/>
<path transform="translate(246,149)" fill="#F9EEDD" d="M0 0 C0.99 0.66 1.98 1.32 3 2 C0.70507812 3.85546875 0.70507812 3.85546875 -1.58984375 5.7109375 C-3.13266437 6.9666391 -3.13266437 6.9666391 -4 9 C-4.66 9 -5.32 9 -6 9 C-6 9.66 -6 10.32 -6 11 C-6.66 11 -7.32 11 -8 11 C-8.33 11.99 -8.66 12.98 -9 14 C-11.53778873 16.73814047 -13.8889356 18.92595707 -17 21 C-16.48305018 16.77492934 -14.08781408 14.58922182 -11.25 11.5625 C-10.38890625 10.63566406 -9.5278125 9.70882812 -8.640625 8.75390625 C-6.12768607 6.13316373 -3.57857958 3.55603955 -1 1 C-0.67 0.67 -0.34 0.34 0 0 Z"/>
<path transform="translate(337,172)" fill="#F3BB5F" d="M0 0 C2.475 0.495 2.475 0.495 5 1 C5 1.66 5 2.32 5 3 C6.2065625 3.433125 6.2065625 3.433125 7.4375 3.875 C10 5 10 5 11 7 C11.99 7.33 12.98 7.66 14 8 C14.33 7.34 14.66 6.68 15 6 C15 7.65 15 9.3 15 11 C15.66 11 16.32 11 17 11 C17 11.66 17 12.32 17 13 C17.99 13.33 18.98 13.66 20 14 C20.33 14.99 20.66 15.98 21 17 C20.01 16.67 19.02 16.34 18 16 C18 15.34 18 14.68 18 14 C16.9171875 13.62875 16.9171875 13.62875 15.8125 13.25 C12.72393418 11.87730408 10.48988582 10.27646704 8 8 C8 7.34 8 6.68 8 6 C7.236875 5.7525 6.47375 5.505 5.6875 5.25 C2.7635955 3.89004442 1.69995644 2.68414174 0 0 Z"/>
<path transform="translate(136,205)" fill="#F5F1E9" d="M0 0 C0.33 0.66 0.66 1.32 1 2 C0.16054272 4.03361482 -0.77354852 6.02849796 -1.75 8 C-4.14940352 12.99875734 -6.00776856 17.8001058 -7.359375 23.171875 C-8 25 -8 25 -10 26 C-9.71523494 19.05173253 -8.53292183 13.97879079 -5 8 C-4.63132813 7.33484375 -4.26265625 6.6696875 -3.8828125 5.984375 C-1.24139908 1.24139908 -1.24139908 1.24139908 0 0 Z"/>
<path transform="translate(256,139)" fill="#F0B95A" d="M0 0 C0.33 0.66 0.66 1.32 1 2 C0.67 2.66 0.34 3.32 0 4 C1.65 4 3.3 4 5 4 C5 4.66 5 5.32 5 6 C-1.625 9 -1.625 9 -5 9 C-5 9.66 -5 10.32 -5 11 C-6.32 11 -7.64 11 -9 11 C-7.59155282 7.78475695 -5.89655214 5.67816132 -3.375 3.25 C-2.74335938 2.63640625 -2.11171875 2.0228125 -1.4609375 1.390625 C-0.73777344 0.70226562 -0.73777344 0.70226562 0 0 Z"/>
<path transform="translate(252,350)" fill="#FEE8B7" d="M0 0 C1.9375 0.6875 1.9375 0.6875 4 2 C4.625 4.4375 4.625 4.4375 5 7 C5.99 8.485 5.99 8.485 7 10 C7.265625 12.77734375 7.265625 12.77734375 7.25 15.9375 C7.25515625 16.97777344 7.2603125 18.01804687 7.265625 19.08984375 C7.00629936 21.93098495 6.46519702 23.58707634 5 26 C3.52768516 21.41446981 4.12133906 16.8416823 4.35546875 12.09375 C3.9219986 8.32113068 2.77765189 7.44736579 0 5 C-0.25 2.25 -0.25 2.25 0 0 Z"/>
<path transform="translate(393,339)" fill="#F4BD5F" d="M0 0 C-3.09392967 6.6694616 -8.23170497 11.57316893 -14 16 C-14.33 16 -14.66 16 -15 16 C-15 14.35 -15 12.7 -15 11 C-14.34 11 -13.68 11 -13 11 C-13 10.34 -13 9.68 -13 9 C-11.68 9 -10.36 9 -9 9 C-8.67 7.68 -8.34 6.36 -8 5 C-7.01 5.33 -6.02 5.66 -5 6 C-5 4.35 -5 2.7 -5 1 C-2 0 -2 0 0 0 Z"/>
<path transform="translate(165,170)" fill="#F5F2EB" d="M0 0 C0.33 0.99 0.66 1.98 1 3 C0.21753906 3.77085937 -0.56492188 4.54171875 -1.37109375 5.3359375 C-2.39336057 6.34882573 -3.41548881 7.36185384 -4.4375 8.375 C-5.2119043 9.13683594 -5.2119043 9.13683594 -6.00195312 9.9140625 C-8.857133 12.68568936 -8.857133 12.68568936 -11 16 C-11.66 16 -12.32 16 -13 16 C-13.268125 16.639375 -13.53625 17.27875 -13.8125 17.9375 C-15 20 -15 20 -18 21 C-16.64763423 18.06120516 -15.10057341 15.70767089 -13 13.25 C-12.484375 12.63640625 -11.96875 12.0228125 -11.4375 11.390625 C-10 10 -10 10 -8 10 C-7.7525 9.443125 -7.505 8.88625 -7.25 8.3125 C-5.43760226 4.95956419 -3.46885508 1.73442754 0 0 Z"/>
<path transform="translate(290,102)" fill="#F4AF46" d="M0 0 C0.66 0.33 1.32 0.66 2 1 C1.67 1.66 1.34 2.32 1 3 C0.34 3 -0.32 3 -1 3 C-1.2475 3.94875 -1.495 4.8975 -1.75 5.875 C-3.17423987 9.43559968 -3.71715887 9.51742659 -7 11 C-7.80528889 13.05000871 -7.80528889 13.05000871 -8 15 C-8.99 15 -9.98 15 -11 15 C-11 15.66 -11 16.32 -11 17 C-12.65 17.33 -14.3 17.66 -16 18 C-15.34 17.67 -14.68 17.34 -14 17 C-13.72027344 16.4121875 -13.44054687 15.824375 -13.15234375 15.21875 C-11.70312153 12.42838315 -9.8283194 10.67280546 -7.5625 8.5 C-4.76053263 5.80420273 -2.24646003 3.17827143 0 0 Z"/>
<path transform="translate(371,358)" fill="#F6B64F" d="M0 0 C1.65 0 3.3 0 5 0 C2.22759117 3.770476 -0.7995822 6.6503175 -4.4140625 9.5703125 C-6.24893404 11.10625904 -6.24893404 11.10625904 -8 14 C-8.66 13.67 -9.32 13.34 -10 13 C-10 12.01 -10 11.02 -10 10 C-9.01 10 -8.02 10 -7 10 C-6.67 8.68 -6.34 7.36 -6 6 C-5.34 6 -4.68 6 -4 6 C-4.33 5.01 -4.66 4.02 -5 3 C-3.35 2.67 -1.7 2.34 0 2 C0 1.34 0 0.68 0 0 Z"/>
<path transform="translate(351,378)" fill="#F9AC3A" d="M0 0 C1.32 0 2.64 0 4 0 C4 2 4 2 2.390625 3.65625 C1.68421875 4.2646875 0.9778125 4.873125 0.25 5.5 C-0.44609375 6.1084375 -1.1421875 6.716875 -1.859375 7.34375 C-3.84460792 8.87976963 -5.71872045 9.9723966 -8 11 C-8.6875 8.1875 -8.6875 8.1875 -9 5 C-7.5625 3.125 -7.5625 3.125 -6 2 C-5.67 2.66 -5.34 3.32 -5 4 C-5.33 4.66 -5.66 5.32 -6 6 C-5.01 6 -4.02 6 -3 6 C-3 5.01 -3 4.02 -3 3 C-2.01 3 -1.02 3 0 3 C0 2.01 0 1.02 0 0 Z"/>
<path transform="translate(323,106)" fill="#F1BC5F" d="M0 0 C3.70985713 0.55372813 6.12444839 1.47875841 9.171875 3.65234375 C9.91824219 4.18150391 10.66460937 4.71066406 11.43359375 5.25585938 C12.19800781 5.81080078 12.96242188 6.36574219 13.75 6.9375 C14.52988281 7.48857422 15.30976563 8.03964844 16.11328125 8.60742188 C21.86005734 12.72011468 21.86005734 12.72011468 23 15 C20.625 14.6875 20.625 14.6875 18 14 C17.34 13.01 16.68 12.02 16 11 C14.67696283 10.6278958 13.34262065 10.29369827 12 10 C10 8 10 8 9 6 C8.34 6 7.68 6 7 6 C7 5.34 7 4.68 7 4 C6.01 4.33 5.02 4.66 4 5 C4 4.01 4 3.02 4 2 C2.68 1.34 1.36 0.68 0 0 Z"/>
<path transform="translate(255,353)" fill="#F0B259" d="M0 0 C4.30764815 1.56641751 8.06171464 3.68336156 12 6 C10.02 6.99 10.02 6.99 8 8 C8 7.34 8 6.68 8 6 C7.01 6 6.02 6 5 6 C5 9.96 5 13.92 5 18 C4.67 18 4.34 18 4 18 C3.96261719 17.25234375 3.92523438 16.5046875 3.88671875 15.734375 C3.82097656 14.74953125 3.75523437 13.7646875 3.6875 12.75 C3.62949219 11.77546875 3.57148438 10.8009375 3.51171875 9.796875 C2.94728533 6.71188011 1.92077685 5.40998275 0 3 C0 2.01 0 1.02 0 0 Z"/>
<path transform="translate(225,386)" fill="#F2B65E" d="M0 0 C0.99580078 0.24556641 0.99580078 0.24556641 2.01171875 0.49609375 C5.62883337 1.10603857 9.15860708 1.10795513 12.8125 1.0625 C13.50537109 1.05798828 14.19824219 1.05347656 14.91210938 1.04882812 C16.60811068 1.03713156 18.30406703 1.01919924 20 1 C19.67 1.66 19.34 2.32 19 3 C16.93359375 3.4140625 16.93359375 3.4140625 14.4375 3.625 C13.61121094 3.69976562 12.78492188 3.77453125 11.93359375 3.8515625 C10.97646484 3.92503906 10.97646484 3.92503906 10 4 C10.66 5.65 11.32 7.3 12 9 C7.29748439 6.87267151 3.79559199 4.43410704 0 1 C0 0.67 0 0.34 0 0 Z"/>
<path transform="translate(395,198)" fill="#F2B352" d="M0 0 C-4.76622445 3.78010904 -10.11473442 4.03358211 -16 4 C-18.52448364 3.56549335 -20.59138656 2.90992063 -23 2 C-23 1.67 -23 1.34 -23 1 C-21.83984375 1.03480469 -21.83984375 1.03480469 -20.65625 1.0703125 C-13.47136684 1.20732765 -13.47136684 1.20732765 -6.4375 -0.0625 C-3 -1 -3 -1 0 0 Z"/>
<path transform="translate(260,363)" fill="#F5A730" d="M0 0 C0.33 0 0.66 0 1 0 C1 1.65 1 3.3 1 5 C1.99 5 2.98 5 4 5 C4 6.65 4 8.3 4 10 C3.01 10.495 3.01 10.495 2 11 C1.67 10.34 1.34 9.68 1 9 C0.75765625 9.53109375 0.5153125 10.0621875 0.265625 10.609375 C-1.69412559 14.73992624 -3.46628972 17.97110547 -7 21 C-7.66 20.67 -8.32 20.34 -9 20 C-8.59007812 19.46890625 -8.18015625 18.9378125 -7.7578125 18.390625 C-7.21898437 17.68421875 -6.68015625 16.9778125 -6.125 16.25 C-5.32449219 15.20585937 -5.32449219 15.20585937 -4.5078125 14.140625 C-2.09257571 10.71173961 -0.79355591 7.93555915 -0.375 3.75 C-0.25125 2.5125 -0.1275 1.275 0 0 Z"/>
<path transform="translate(342,326)" fill="#F6AF44" d="M0 0 C0.75 1.6875 0.75 1.6875 1 4 C-1.37801295 7.7499435 -3.96358202 10.13703785 -8 12 C-8.99 11.67 -9.98 11.34 -11 11 C-7.33333333 7.33333333 -3.66666667 3.66666667 0 0 Z"/>
<path transform="translate(267,360)" fill="#F1A52F" d="M0 0 C6.35450323 1.24702151 12.68327435 2.57364259 19 4 C18.67 4.66 18.34 5.32 18 6 C12.05827036 6.38750411 6.44461879 5.53456392 1 3 C0.67 2.01 0.34 1.02 0 0 Z"/>
<path transform="translate(237,395)" fill="#F7AA41" d="M0 0 C4.38332057 0.82187261 8.67940177 1.90154282 13 3 C13 3.99 13 4.98 13 6 C14.65 6 16.3 6 18 6 C17.67 6.99 17.34 7.98 17 9 C15.10213071 8.23419309 13.20678756 7.46212423 11.3125 6.6875 C9.72888672 6.04361328 9.72888672 6.04361328 8.11328125 5.38671875 C5.23929482 4.10658678 2.62161868 2.73639679 0 1 C0 0.67 0 0.34 0 0 Z"/>
<path transform="translate(204,302)" fill="#F7F4ED" d="M0 0 C6.03331362 4.98404168 11.5184171 10.41915303 17 16 C14 16 14 16 12 15 C12 14.34 12 13.68 12 13 C11.443125 12.79375 10.88625 12.5875 10.3125 12.375 C7.12722845 10.48105476 5.29482348 7.88323975 3 5 C2.401875 4.4225 1.80375 3.845 1.1875 3.25 C0 2 0 2 0 0 Z"/>
<path transform="translate(270,141)" fill="#F7C97B" d="M0 0 C4.2290362 -0.08725659 8.45784012 -0.1404789 12.6875 -0.1875 C13.88568359 -0.21263672 15.08386719 -0.23777344 16.31835938 -0.26367188 C17.47529297 -0.27333984 18.63222656 -0.28300781 19.82421875 -0.29296875 C20.88729248 -0.3086792 21.95036621 -0.32438965 23.0456543 -0.34057617 C26.38703212 0.04461696 28.26958732 1.08628311 31 3 C28.38356796 3.96904891 27.31653726 4.1300893 24.68676758 3.04931641 C21.85705203 1.94417171 19.72162417 1.69198681 16.69921875 1.5859375 C15.72275391 1.54726562 14.74628906 1.50859375 13.74023438 1.46875 C12.73283203 1.4378125 11.72542969 1.406875 10.6875 1.375 C9.66076172 1.33632812 8.63402344 1.29765625 7.57617188 1.2578125 C5.05095735 1.16385103 2.52574408 1.0781846 0 1 C0 0.67 0 0.34 0 0 Z"/>
<path transform="translate(167,329)" fill="#F5F3EE" d="M0 0 C2.5 1.375 2.5 1.375 5 3 C5 3.66 5 4.32 5 5 C5.66 5 6.32 5 7 5 C7 5.66 7 6.32 7 7 C7.61875 7.2475 8.2375 7.495 8.875 7.75 C11.35068687 9.20628639 11.95125002 10.37812506 13 13 C12.01 13 11.02 13 10 13 C10 12.34 10 11.68 10 11 C9.34 11 8.68 11 8 11 C5.875 9.125 5.875 9.125 4 7 C4 6.34 4 5.68 4 5 C3.01 4.67 2.02 4.34 1 4 C0.3125 1.9375 0.3125 1.9375 0 0 Z"/>
<path transform="translate(274,404)" fill="#F3AC3A" d="M0 0 C0.33 0.99 0.66 1.98 1 3 C-1.10388569 3.05402274 -3.20816714 3.09280256 -5.3125 3.125 C-7.07013672 3.15980469 -7.07013672 3.15980469 -8.86328125 3.1953125 C-12 3 -12 3 -15 1 C-13.43784452 0.83013455 -11.8752548 0.66426036 -10.3125 0.5 C-9.44238281 0.4071875 -8.57226562 0.314375 -7.67578125 0.21875 C-5.10276661 0.00840136 -2.58015636 -0.03719144 0 0 Z"/>
<path transform="translate(305,99)" fill="#F4B95C" d="M0 0 C6.70880162 1.04481337 12.0564116 2.69800644 18 6 C14.90279155 6.87840996 13.09354597 6.99435406 10 6 C10 5.34 10 4.68 10 4 C9.278125 3.87625 8.55625 3.7525 7.8125 3.625 C5.04278106 3.0095069 2.6029646 2.11555626 0 1 C0 0.67 0 0.34 0 0 Z"/>
<path transform="translate(305,98)" fill="#FBE3B7" d="M0 0 C0 0.33 0 0.66 0 1 C-0.75925781 0.96519531 -1.51851563 0.93039063 -2.30078125 0.89453125 C-3.29464844 0.86746094 -4.28851563 0.84039062 -5.3125 0.8125 C-6.29863281 0.77769531 -7.28476562 0.74289063 -8.30078125 0.70703125 C-11.04574389 0.75721892 -11.04574389 0.75721892 -12.85546875 2.51171875 C-13.23316406 3.00285156 -13.61085938 3.49398437 -14 4 C-13.75 1.625 -13.75 1.625 -13 -1 C-8.5010564 -4.4129917 -4.70851998 -1.96188332 0 0 Z"/>
<path transform="translate(273,120)" fill="#F4AF43" d="M0 0 C1 2 1 2 0.375 4.9375 C-1.23078503 8.5140212 -2.41502041 9.51354505 -6 11 C-6.99 10.67 -7.98 10.34 -9 10 C-8.27683594 9.29423828 -8.27683594 9.29423828 -7.5390625 8.57421875 C-6.90742188 7.95160156 -6.27578125 7.32898438 -5.625 6.6875 C-4.68527344 5.76517578 -4.68527344 5.76517578 -3.7265625 4.82421875 C-1.81913393 2.91187472 -1.81913393 2.91187472 0 0 Z"/>
<path transform="translate(309,403)" fill="#F5BD6A" d="M0 0 C2.97 0 5.94 0 9 0 C4.30435413 4.69564587 -2.71830576 4.52825221 -9 5 C-8.67 4.34 -8.34 3.68 -8 3 C-5.35139573 2.40644386 -2.70802678 2.25790731 0 2 C0 1.34 0 0.68 0 0 Z"/>
<path transform="translate(136,205)" fill="#F9F7F2" d="M0 0 C0.33 0.66 0.66 1.32 1 2 C0.00390625 4.6015625 0.00390625 4.6015625 -1.4375 7.625 C-1.91058594 8.62789062 -2.38367188 9.63078125 -2.87109375 10.6640625 C-3.24363281 11.43492187 -3.61617187 12.20578125 -4 13 C-4.66 12.67 -5.32 12.34 -6 12 C-5.32505119 7.78156993 -3.01938931 3.01938931 0 0 Z"/>
<path transform="translate(351,317)" fill="#F4B554" d="M0 0 C0 2.62113708 -0.31292445 4.50935112 -1 7 C-3.31 7.66 -5.62 8.32 -8 9 C-7.04270084 7.87411986 -6.08412105 6.7493285 -5.125 5.625 C-4.59132813 4.99851562 -4.05765625 4.37203125 -3.5078125 3.7265625 C-2.38567993 2.44163349 -1.20628025 1.20628025 0 0 Z"/>
<path transform="translate(144,306)" fill="#F4F2EE" d="M0 0 C1.98 0.99 1.98 0.99 4 2 C4 2.66 4 3.32 4 4 C4.66 4 5.32 4 6 4 C7.38232443 5.62626404 8.71937515 7.2925002 10 9 C9.67 9.66 9.34 10.32 9 11 C8.01 10.34 7.02 9.68 6 9 C6 8.34 6 7.68 6 7 C5.34 7 4.68 7 4 7 C1.4132178 4.93057424 0.5590888 3.24271506 0 0 Z"/>
<path transform="translate(369,140)" fill="#F5B757" d="M0 0 C3.81684226 1.55500981 6.19195732 4.03595495 9 7 C7.02 7 5.04 7 3 7 C2.01 4.69 1.02 2.38 0 0 Z"/>
<path transform="translate(219,381)" fill="#F8EFDE" d="M0 0 C2.96175123 0.61277612 4.38058783 1.25372522 7 3 C8.9896995 3.39013716 10.99019869 3.73202649 13 4 C10.66552322 5.46985575 9.28599403 6.00714985 6.5 5.9375 C3.21550922 4.70581596 1.96592862 2.83967467 0 0 Z"/>
<path transform="translate(380,348)" fill="#F2B44C" d="M0 0 C1.32 0 2.64 0 4 0 C2.52307692 4.67692308 2.52307692 4.67692308 -0.125 6.3125 C-1.053125 6.6528125 -1.053125 6.6528125 -2 7 C-2 5.35 -2 3.7 -2 2 C-1.34 2 -0.68 2 0 2 C0 1.34 0 0.68 0 0 Z"/>
<path transform="translate(183,344)" fill="#F3F0EE" d="M0 0 C0.99 0.495 0.99 0.495 2 1 C2 1.66 2 2.32 2 3 C2.598125 3.268125 3.19625 3.53625 3.8125 3.8125 C5.99847854 4.99917406 7.41332594 6.09599113 9 8 C9 8.66 9 9.32 9 10 C5.17647894 8.4422692 2.70794407 6.08404742 0 3 C0 2.01 0 1.02 0 0 Z"/>
<path transform="translate(236,159)" fill="#F6F3EE" d="M0 0 C0.640625 1.8359375 0.640625 1.8359375 1 4 C-1.46026571 6.87030999 -3.85489214 8.90326143 -7 11 C-6.40716379 7.60807637 -5.23256811 5.7892243 -2.9375 3.25 C-2.38964844 2.63640625 -1.84179688 2.0228125 -1.27734375 1.390625 C-0.85582031 0.93171875 -0.43429688 0.4728125 0 0 Z"/>
<path transform="translate(378,147)" fill="#F4BE6E" d="M0 0 C3.465 1.98 3.465 1.98 7 4 C7 4.66 7 5.32 7 6 C8.32 6.66 9.64 7.32 11 8 C10.01 8.495 10.01 8.495 9 9 C5.63856582 7.87952194 4.42471166 6.50292817 2 4 C1.34 3.67 0.68 3.34 0 3 C0 2.01 0 1.02 0 0 Z"/>
<path transform="translate(208,369)" fill="#F3F0EC" d="M0 0 C7.48291572 6.15034169 7.48291572 6.15034169 10 10 C7.525 9.01 7.525 9.01 5 8 C5 7.34 5 6.68 5 6 C4.01 5.67 3.02 5.34 2 5 C2 4.34 2 3.68 2 3 C1.34 3 0.68 3 0 3 C0 2.01 0 1.02 0 0 Z"/>
<path transform="translate(195,357)" fill="#F4F2EA" d="M0 0 C3.81936528 1.55603771 6.26044438 3.95604931 9 7 C9 7.66 9 8.32 9 9 C8.01 8.67 7.02 8.34 6 8 C6 7.34 6 6.68 6 6 C5.38125 5.7525 4.7625 5.505 4.125 5.25 C1.64931313 3.79371361 1.04874998 2.62187494 0 0 Z"/>
<path transform="translate(346,121)" fill="#F4C16E" d="M0 0 C4.2026393 2.63886654 7.56638098 5.36440339 11 9 C10.01 9 9.02 9 8 9 C8 8.34 8 7.68 8 7 C7.236875 6.9175 6.47375 6.835 5.6875 6.75 C2.45284809 5.84730645 1.64900735 4.86406539 0 2 C0 1.34 0 0.68 0 0 Z"/>
<path transform="translate(365,364)" fill="#F3C067" d="M0 0 C1.32 0.33 2.64 0.66 4 1 C2.02 3.31 0.04 5.62 -2 8 C-2.66 7.67 -3.32 7.34 -4 7 C-4 6.01 -4 5.02 -4 4 C-3.01 4 -2.02 4 -1 4 C-0.67 2.68 -0.34 1.36 0 0 Z"/>
<path transform="translate(402,185)" fill="#F1B35E" d="M0 0 C0.68359375 1.765625 0.68359375 1.765625 1 4 C-0.21484375 5.921875 -0.21484375 5.921875 -1.9375 7.75 C-2.50339844 8.36359375 -3.06929688 8.9771875 -3.65234375 9.609375 C-4.31943359 10.29773438 -4.31943359 10.29773438 -5 11 C-5.33 10.01 -5.66 9.02 -6 8 C-5.01 7.67 -4.02 7.34 -3 7 C-3 5.68 -3 4.36 -3 3 C-2.01 3 -1.02 3 0 3 C0 2.01 0 1.02 0 0 Z"/>
<path transform="translate(305,147)" fill="#F1B049" d="M0 0 C2.875 -0.1875 2.875 -0.1875 6 0 C6.66 0.99 7.32 1.98 8 3 C7.67 3.99 7.34 4.98 7 6 C5.83054208 5.19152271 4.66449539 4.37810888 3.5 3.5625 C2.8503125 3.11003906 2.200625 2.65757812 1.53125 2.19140625 C1.0259375 1.79824219 0.520625 1.40507812 0 1 C0 0.67 0 0.34 0 0 Z"/>
<path transform="translate(351,378)" fill="#F1BA5C" d="M0 0 C1.32 0 2.64 0 4 0 C4 0.66 4 1.32 4 2 C2.25 3.5078125 2.25 3.5078125 0 5.125 C-0.7425 5.66382813 -1.485 6.20265625 -2.25 6.7578125 C-2.8275 7.16773438 -3.405 7.57765625 -4 8 C-3.67 6.35 -3.34 4.7 -3 3 C-2.01 3 -1.02 3 0 3 C0 2.01 0 1.02 0 0 Z"/>
<path transform="translate(157,320)" fill="#F4F3EF" d="M0 0 C3.81684226 1.55500981 6.19195732 4.03595495 9 7 C8.67 7.66 8.34 8.32 8 9 C5.95880212 7.38405168 3.95927063 5.7143618 2 4 C2 3.34 2 2.68 2 2 C1.34 2 0.68 2 0 2 C0 1.34 0 0.68 0 0 Z"/>
<path transform="translate(326,163)" fill="#F6B348" d="M0 0 C2.31 0.33 4.62 0.66 7 1 C7 2.65 7 4.3 7 6 C1.125 2.25 1.125 2.25 0 0 Z"/>
<path transform="translate(337,331)" fill="#F4B64F" d="M0 0 C0.66 1.32 1.32 2.64 2 4 C-0.3125 5.5625 -0.3125 5.5625 -3 7 C-3.99 6.67 -4.98 6.34 -6 6 C-4.02 4.02 -2.04 2.04 0 0 Z"/>
<path transform="translate(135,291)" fill="#F3F0EC" d="M0 0 C2.80411009 1.40205505 3.53830878 3.26727293 5 6 C5.6875 8.3125 5.6875 8.3125 6 10 C5.34 10 4.68 10 4 10 C0 3.375 0 3.375 0 0 Z"/>
<path transform="translate(125,261)" fill="#F6F3EA" d="M0 0 C0.66 0 1.32 0 2 0 C2.33 3.3 2.66 6.6 3 10 C2.34 10 1.68 10 1 10 C0.67 6.7 0.34 3.4 0 0 Z"/>
<path transform="translate(363,187)" fill="#F6AC38" d="M0 0 C-0.33 1.65 -0.66 3.3 -1 5 C-2.9375 4.1875 -2.9375 4.1875 -5 3 C-5.33 2.01 -5.66 1.02 -6 0 C-3 -1 -3 -1 0 0 Z"/>
<path transform="translate(317,156)" fill="#F3BB5C" d="M0 0 C1.32 0 2.64 0 4 0 C4 0.99 4 1.98 4 3 C5.32 3 6.64 3 8 3 C8.33 4.32 8.66 5.64 9 7 C6.50638429 5.79618552 4.31856917 4.54571278 2 3 C2 2.34 2 1.68 2 1 C1.34 0.67 0.68 0.34 0 0 Z"/>
<path transform="translate(252,350)" fill="#FAEFDB" d="M0 0 C1.98 0.99 1.98 0.99 4 2 C4 3.98 4 5.96 4 8 C3.01 7.67 2.02 7.34 1 7 C0.67 4.69 0.34 2.38 0 0 Z"/>
<path transform="translate(128,275)" fill="#F6F1EA" d="M0 0 C3.0916909 2.52956528 3.90931332 5.22454612 5 9 C4.01 9 3.02 9 2 9 C0.14223235 5.86501708 -0.20140476 3.62528568 0 0 Z"/>
<path transform="translate(177,157)" fill="#F4EDE7" d="M0 0 C0.66 0.33 1.32 0.66 2 1 C-0.31 3.64 -2.62 6.28 -5 9 C-5.66 8.67 -6.32 8.34 -7 8 C-6.34 7.01 -5.68 6.02 -5 5 C-4.34 5 -3.68 5 -3 5 C-2.690625 4.360625 -2.38125 3.72125 -2.0625 3.0625 C-1 1 -1 1 0 0 Z"/>
<path transform="translate(239,337)" fill="#F4F3EE" d="M0 0 C3.7952131 1.49097658 5.61042731 3.75700849 8 7 C6.0625 6.6875 6.0625 6.6875 4 6 C3.67 5.01 3.34 4.02 3 3 C2.01 2.67 1.02 2.34 0 2 C0 1.34 0 0.68 0 0 Z"/>
<path transform="translate(356,312)" fill="#F4AD46" d="M0 0 C0.66 0 1.32 0 2 0 C1.67 1.65 1.34 3.3 1 5 C-0.65 5 -2.3 5 -4 5 C-2.71937515 3.2925002 -1.38232443 1.62626404 0 0 Z"/>
<path transform="translate(362,307)" fill="#F5B24E" d="M0 0 C2 1 2 1 3 3 C2.67 3.66 2.34 4.32 2 5 C0.02 5 -1.96 5 -4 5 C-4 4.34 -4 3.68 -4 3 C-2 1.375 -2 1.375 0 0 Z"/>
<path transform="translate(183,282)" fill="#F8F6F0" d="M0 0 C1.98 0.99 1.98 0.99 4 2 C4 2.66 4 3.32 4 4 C4.99 4.33 5.98 4.66 7 5 C7 5.66 7 6.32 7 7 C6.01 7 5.02 7 4 7 C4 6.34 4 5.68 4 5 C3.34 5 2.68 5 2 5 C1.34 3.35 0.68 1.7 0 0 Z"/>
<path transform="translate(402,176)" fill="#F7A126" d="M0 0 C1.03159626 3.09478879 0.97482862 4.52631393 0.5625 7.6875 C0.46066406 8.49574219 0.35882813 9.30398437 0.25390625 10.13671875 C0.17011719 10.75160156 0.08632813 11.36648437 0 12 C-0.33 12 -0.66 12 -1 12 C-2.42857143 3.42857143 -2.42857143 3.42857143 0 0 Z"/>
<path transform="translate(169,165)" fill="#FBF8F5" d="M0 0 C0.99 0.66 1.98 1.32 3 2 C0.03 4.475 0.03 4.475 -3 7 C-3.33 6.01 -3.66 5.02 -4 4 C-3.01 3.67 -2.02 3.34 -1 3 C-0.67 2.01 -0.34 1.02 0 0 Z"/>
<path transform="translate(237,395)" fill="#F2B858" d="M0 0 C3.34373475 0.55728913 6.03312999 1.35173889 9 3 C7.3125 3.6875 7.3125 3.6875 5 4 C2.25 2.625 2.25 2.625 0 1 C0 0.67 0 0.34 0 0 Z"/>
<path transform="translate(267,360)" fill="#F4B55E" d="M0 0 C4.95 0.99 4.95 0.99 10 2 C10 2.33 10 2.66 10 3 C7.03 3 4.06 3 1 3 C0.67 2.01 0.34 1.02 0 0 Z"/>
<path transform="translate(183,217)" fill="#F4EFEA" d="M0 0 C0.66 0.33 1.32 0.66 2 1 C0.35 2.98 -1.3 4.96 -3 7 C-3.99 6.67 -4.98 6.34 -6 6 C-4.02 4.02 -2.04 2.04 0 0 Z"/>
</svg>